<svg xmlns="http://www.w3.org/2000/svg" viewBox="0 0 512 512">
  <rect width="512" height="512" fill="#0C1524"/>
  <rect width="512" height="512" rx="112" fill="#0C1524"/>
  <g transform="translate(196,248) scale(0.8) translate(-256,-256)">
    <path d="M156 386 L256 126 L356 386Z" fill="#3B82F6"/>
    <polygon points="256,170 190,340 256,300 322,340" fill="#0C1524"/>
    <rect x="168" y="355" width="176" height="18" rx="4" fill="#3B82F6"/>
    <line x1="256" y1="355" x2="256" y2="405" stroke="#3B82F6" stroke-width="18" stroke-linecap="round"/>
    <line x1="168" y1="405" x2="344" y2="405" stroke="#3B82F6" stroke-width="18" stroke-linecap="round"/>
    <rect x="190" y="390" width="32" height="15" rx="4" fill="#3B82F6"/>
    <rect x="256" y="390" width="32" height="15" rx="4" fill="#3B82F6"/>
    <rect x="322" y="390" width="32" height="15" rx="4" fill="#3B82F6"/>
  </g>
  <g transform="translate(316,248) scale(-0.8,0.8) translate(-256,-256)">
    <path d="M156 386 L256 126 L356 386Z" fill="#3B82F6"/>
    <polygon points="256,170 190,340 256,300 322,340" fill="#0C1524"/>
    <rect x="168" y="355" width="176" height="18" rx="4" fill="#3B82F6"/>
    <line x1="256" y1="355" x2="256" y2="405" stroke="#3B82F6" stroke-width="18" stroke-linecap="round"/>
    <line x1="168" y1="405" x2="344" y2="405" stroke="#3B82F6" stroke-width="18" stroke-linecap="round"/>
    <rect x="190" y="390" width="32" height="15" rx="4" fill="#3B82F6"/>
    <rect x="256" y="390" width="32" height="15" rx="4" fill="#3B82F6"/>
    <rect x="322" y="390" width="32" height="15" rx="4" fill="#3B82F6"/>
  </g>
</svg>
